<svg id="Layer_1" data-name="Layer 1" xmlns="http://www.w3.org/2000/svg" viewBox="0 0 1200 400"><defs><style>.cls-1{fill:#fff;}</style></defs><title>milvus-horizontal-white</title><path class="cls-1" d="M515.91,169.11a16.66,16.66,0,0,1,1.56-6.91,11.41,11.41,0,0,1,3.61-4.35,14.38,14.38,0,0,1,5-2.22A25.76,25.76,0,0,1,532,155a28.93,28.93,0,0,1,10.85,1.81,23.27,23.27,0,0,1,5.91,3.12q5.91,12.16,12.41,25.88t13.22,26.54Q580.33,200.5,586,189t10.43-21.86q3.12-7,7.65-9.61A20.51,20.51,0,0,1,614.34,155a31.52,31.52,0,0,1,10.92,1.73,28.24,28.24,0,0,1,6,2.71L637.5,267.7H609.9l-3.78-67.37L600,212.82q-3.12,6.41-6,12.65t-5.42,11.91q-2.55,5.67-4.52,10.11H563.72q-1.8-4.44-4.52-10.35t-5.66-12.33q-3-6.41-6.08-12.73c-2.09-4.22-4-8.08-5.76-11.59l-3.61,67.21H510.32Z"/><path class="cls-1" d="M662.84,161.38A14.44,14.44,0,0,1,667,150.87a14,14,0,0,1,10.44-4.28,14.62,14.62,0,0,1,14.79,14.79A14,14,0,0,1,688,171.82,14.44,14.44,0,0,1,677.47,176a14.32,14.32,0,0,1-14.63-14.63Zm1.48,34.18q0-6.41,3.78-9t10-2.62a28.5,28.5,0,0,1,8.06,1.06c2.4.72,3.94,1.18,4.6,1.4V267.7H664.32Z"/><path class="cls-1" d="M717.08,158.26q0-6.4,3.78-9t10-2.63a28.46,28.46,0,0,1,8.05,1.07c2.41.72,3.94,1.18,4.6,1.4V267.7H717.08Z"/><path class="cls-1" d="M794,267.7q-5.09-9-9.94-18.57t-8.79-17.83q-3.94-8.3-6.57-14.13t-3.29-7.48q-1.3-3.28-2.87-7.39a21.09,21.09,0,0,1-1.56-7.4,10.49,10.49,0,0,1,3.28-7.8q3.28-3.21,9.86-3.2a28.38,28.38,0,0,1,8.55,1.06,26.73,26.73,0,0,1,3.78,1.4q2.79,8.05,5.91,16.27t6,15.2q2.88,7,5.18,12.32c1.53,3.56,2.63,6.06,3.28,7.48q1-2.13,3.12-7.31t4.69-11.51q2.55-6.31,5.09-12.65t4.36-10.76a33.22,33.22,0,0,1,2.22-4.6,15,15,0,0,1,3-3.7,11.7,11.7,0,0,1,4.19-2.38,19.39,19.39,0,0,1,6.08-.82,25,25,0,0,1,5.92.65A32.43,32.43,0,0,1,850,186a21.37,21.37,0,0,1,3.12,1.56c.77.5,1.26.8,1.48.91a62.35,62.35,0,0,1-3.12,8.95q-2.46,6-5.84,13.72t-7.31,16.19q-3.95,8.46-7.72,16.35t-7.07,14.21q-3.28,6.33-5.09,9.78Z"/><path class="cls-1" d="M897.41,228.59q0,17.1,15.45,17.09t15.44-17.09v-33q0-6.41,3.78-9t10-2.62a28.47,28.47,0,0,1,8,1.06c2.41.72,3.94,1.18,4.6,1.4v47.16a37.23,37.23,0,0,1-3.21,16,31.6,31.6,0,0,1-8.79,11.34,38,38,0,0,1-13.31,6.82,61,61,0,0,1-33.19,0A38,38,0,0,1,883,260.88a31.49,31.49,0,0,1-8.79-11.34,37.23,37.23,0,0,1-3.21-16v-38q0-6.41,3.78-9t10-2.62a28.47,28.47,0,0,1,8,1.06c2.41.72,3.94,1.18,4.6,1.4Z"/><path class="cls-1" d="M983.4,242.06a25.19,25.19,0,0,0,4.35,2.39,54.16,54.16,0,0,0,7.23,2.63,83.38,83.38,0,0,0,9.53,2.13,66.7,66.7,0,0,0,11.26.91q6.74,0,10.19-1.24t3.45-4.35a4.51,4.51,0,0,0-2.88-4.52,37,37,0,0,0-8.95-2l-8.55-1a96.61,96.61,0,0,1-12.32-2.38,34.19,34.19,0,0,1-10.44-4.6,22.2,22.2,0,0,1-7.14-7.81,24.49,24.49,0,0,1-2.63-12,28.28,28.28,0,0,1,2.22-11.26,23.41,23.41,0,0,1,7-9,35.26,35.26,0,0,1,12.16-6.08,61.53,61.53,0,0,1,17.58-2.22,104.17,104.17,0,0,1,17.83,1.32,45.39,45.39,0,0,1,12.9,4.11,15.51,15.51,0,0,1,5,4,9.12,9.12,0,0,1,1.89,5.84,10,10,0,0,1-1.07,4.68,16,16,0,0,1-5.09,5.83q-1.23.83-1.56,1a17.91,17.91,0,0,0-2.71-1.81,32.06,32.06,0,0,0-5.92-2.55,68.58,68.58,0,0,0-8.87-2.21,62.94,62.94,0,0,0-11.75-1c-4.93,0-8.36.58-10.27,1.73a5.13,5.13,0,0,0-2.88,4.51,4,4,0,0,0,2.63,3.95,33.78,33.78,0,0,0,7.89,2l15,2.14a75.35,75.35,0,0,1,10.77,2.38,30.15,30.15,0,0,1,9.2,4.52,21.51,21.51,0,0,1,6.41,7.56,24.16,24.16,0,0,1,2.38,11.17q0,13.8-10.52,21.53T1017.58,270a98.22,98.22,0,0,1-30.07-4.35,47.69,47.69,0,0,1-8.79-3.62,47.15,47.15,0,0,1-4.69-2.88Z"/><path class="cls-1" d="M369.09,135.73c-39.78-39-104.28-39.06-144.07,0l-65.1,63.88a9.55,9.55,0,0,0,0,13.67L225,277.18c39.78,39.07,104.3,39.09,144.1,0h0a98.75,98.75,0,0,0,0-141.48ZM353.66,258.44h0a75.85,75.85,0,0,1-105.87,0l-47.79-47a7,7,0,0,1,0-10l47.82-46.93a75.86,75.86,0,0,1,105.85,0h0A72.55,72.55,0,0,1,353.66,258.44Z"/><path class="cls-1" d="M454.3,199.67,425.68,171a2.41,2.41,0,0,0-4.07,2.21,150.35,150.35,0,0,1,0,66.51,2.41,2.41,0,0,0,4.07,2.21l28.64-28.63A9.66,9.66,0,0,0,454.3,199.67Z"/><circle class="cls-1" cx="301.08" cy="206.49" r="50.14"/></svg>