<svg xmlns="http://www.w3.org/2000/svg" id="Layer_1" data-name="Layer 1" viewBox="0 0 905 400"><defs><style>.cls-2{fill:#33b6f2}</style></defs><path d="M358.87 169.11a16.81 16.81 0 011.56-6.91 11.41 11.41 0 013.61-4.35 14.34 14.34 0 015-2.22A25.61 25.61 0 01375 155a28.93 28.93 0 0110.85 1.81 23.08 23.08 0 015.91 3.12q5.92 12.16 12.41 25.88t13.23 26.54Q423.28 200.5 429 189t10.44-21.86q3.11-7 7.64-9.61A20.51 20.51 0 01457.3 155a31.52 31.52 0 0110.92 1.73 28.24 28.24 0 016 2.71l6.25 108.29h-27.61l-3.78-67.37-6.08 12.46q-3.12 6.41-6 12.65t-5.42 11.91q-2.55 5.67-4.52 10.11h-20.38q-1.8-4.44-4.51-10.35t-5.67-12.33q-3-6.41-6.08-12.73t-5.75-11.59l-3.62 67.21h-27.77zm146.93-7.73a14.44 14.44 0 014.2-10.51 14 14 0 0110.44-4.28 14.62 14.62 0 0114.79 14.79 14 14 0 01-4.28 10.44 14.44 14.44 0 01-10.52 4.18 14.32 14.32 0 01-14.63-14.63zm1.48 34.18q0-6.41 3.78-9t10-2.62a28.47 28.47 0 018 1.06c2.41.72 3.94 1.18 4.6 1.4v81.3h-26.38zm52.72-37.3q0-6.4 3.78-9t10-2.63a28.41 28.41 0 018 1.07c2.41.72 3.94 1.18 4.6 1.4v118.6H560zm77 109.44q-5.1-9-10-18.57t-8.79-17.83q-3.94-8.3-6.57-14.13t-3.29-7.48q-1.3-3.28-2.87-7.39a21.09 21.09 0 01-1.56-7.4 10.49 10.49 0 013.28-7.8q3.28-3.21 9.86-3.2a28.38 28.38 0 018.55 1.06 26.73 26.73 0 013.78 1.4q2.79 8.05 5.91 16.27t6 15.2q2.88 7 5.18 12.32c1.53 3.56 2.63 6.06 3.28 7.48q1-2.13 3.13-7.31t4.68-11.51q2.55-6.31 5.09-12.65T667 195.4a33.22 33.22 0 012.22-4.6 15 15 0 013-3.7 11.7 11.7 0 014.19-2.38 19.39 19.39 0 016.08-.82 24.9 24.9 0 015.92.65A32.43 32.43 0 01693 186a20.87 20.87 0 013.12 1.56c.77.5 1.26.8 1.48.91a62.35 62.35 0 01-3.12 8.95q-2.46 6-5.83 13.72t-7.32 16.19q-3.94 8.46-7.72 16.35t-7.07 14.21q-3.28 6.33-5.09 9.78zm103.37-39.11q0 17.1 15.45 17.09t15.44-17.09v-33q0-6.41 3.78-9t10-2.62a28.47 28.47 0 018 1.06c2.41.72 3.94 1.18 4.6 1.4v47.16a37.23 37.23 0 01-3.21 16 31.49 31.49 0 01-8.79 11.34 38 38 0 01-13.31 6.82 61 61 0 01-33.19 0 38 38 0 01-13.31-6.82 31.49 31.49 0 01-8.79-11.34 37.23 37.23 0 01-3.21-16v-38q0-6.41 3.78-9t10-2.62a28.43 28.43 0 018 1.06c2.41.72 3.94 1.18 4.6 1.4zm85.99 13.47a25.19 25.19 0 004.35 2.39 54.16 54.16 0 007.23 2.63 83.38 83.38 0 009.53 2.13 66.7 66.7 0 0011.26.91q6.74 0 10.19-1.24t3.45-4.35a4.51 4.51 0 00-2.88-4.52 37 37 0 00-9-2L852 237a96.61 96.61 0 01-12.32-2.38 34 34 0 01-10.43-4.6 22.13 22.13 0 01-7.15-7.81 24.49 24.49 0 01-2.63-12 28.28 28.28 0 012.22-11.26 23.5 23.5 0 017-9 35.26 35.26 0 0112.16-6.08 61.53 61.53 0 0117.58-2.22 104.09 104.09 0 0117.83 1.32 45.28 45.28 0 0112.9 4.11 15.51 15.51 0 015 4 9.12 9.12 0 011.89 5.84 9.9 9.9 0 01-1.07 4.68 16 16 0 01-5.09 5.83q-1.23.83-1.56 1a17.91 17.91 0 00-2.71-1.81 32.06 32.06 0 00-5.92-2.55 68.58 68.58 0 00-8.87-2.21 62.94 62.94 0 00-11.75-1q-7.39 0-10.27 1.73a5.13 5.13 0 00-2.88 4.51 4 4 0 002.63 3.95 33.78 33.78 0 007.89 2l15 2.14a75.35 75.35 0 0110.77 2.38 30.15 30.15 0 019.2 4.52 21.51 21.51 0 016.41 7.56 24.16 24.16 0 012.38 11.17q0 13.8-10.52 21.53T860.54 270a98.22 98.22 0 01-30.07-4.35 47.69 47.69 0 01-8.79-3.62 47.15 47.15 0 01-4.69-2.88z" fill="#fff"/><path class="cls-2" d="M212.05 135.73c-39.78-39-104.28-39.06-144.07 0L2.88 199.6a9.55 9.55 0 000 13.67l65.06 63.91c39.78 39.07 104.3 39.09 144.11 0a98.75 98.75 0 000-141.48zm-15.43 122.71a75.84 75.84 0 01-105.86 0l-47.8-47a7 7 0 010-10l47.82-46.93a75.86 75.86 0 01105.85 0 72.54 72.54 0 01-.01 103.93zm100.64-58.77L268.64 171a2.41 2.41 0 00-4.07 2.21 150.35 150.35 0 010 66.51 2.41 2.41 0 004.07 2.21l28.64-28.63a9.66 9.66 0 00-.02-13.63z"/><circle class="cls-2" cx="144.04" cy="206.49" r="50.14"/></svg>