<svg id="Layer_1" data-name="Layer 1" xmlns="http://www.w3.org/2000/svg" viewBox="0 0 1000 400"><defs><style>.cls-1{fill:#4fc4f9;}</style></defs><path class="cls-1" d="M518.22,156.7A31.52,31.52,0,0,0,507.3,155,20.51,20.51,0,0,0,497,157.52q-4.53,2.55-7.64,9.61Q484.62,177.5,479,189t-11.58,23.33q-6.75-12.81-13.23-26.54T441.73,159.9a23.08,23.08,0,0,0-5.91-3.12A28.93,28.93,0,0,0,425,155a25.61,25.61,0,0,0-5.91.66,14.34,14.34,0,0,0-5,2.22,11.41,11.41,0,0,0-3.61,4.35,17,17,0,0,0-1.56,6.91l-5.59,98.59h27.77l3.62-67.21q2.63,5.26,5.75,11.59t6.08,12.73q3,6.41,5.67,12.33t4.51,10.35h20.38q2-4.44,4.52-10.11T487,225.47q2.88-6.24,6-12.65l6.08-12.49,3.78,67.37h27.61l-6.25-108.29A28.24,28.24,0,0,0,518.22,156.7Z"/><path class="cls-1" d="M571.09,183.9q-6.26,0-10,2.62t-3.78,9V267.7h26.46V186.36c-.66-.22-2.19-.68-4.6-1.4A28.47,28.47,0,0,0,571.09,183.9Z"/><path class="cls-1" d="M570.43,146.59A14,14,0,0,0,560,150.87a14.44,14.44,0,0,0-4.19,10.51A14.32,14.32,0,0,0,570.43,176a14.44,14.44,0,0,0,10.51-4.19,14,14,0,0,0,4.28-10.44,14.62,14.62,0,0,0-14.79-14.79Z"/><path class="cls-1" d="M623.85,146.59q-6.26,0-10,2.63t-3.78,9V267.7H636.5V149.06c-.66-.22-2.19-.68-4.6-1.4A28.41,28.41,0,0,0,623.85,146.59Z"/><path class="cls-1" d="M743,186a32.43,32.43,0,0,0-4.6-1.48,24.9,24.9,0,0,0-5.92-.65,19.39,19.39,0,0,0-6.08.82,11.7,11.7,0,0,0-4.19,2.38,15,15,0,0,0-3,3.7,33.22,33.22,0,0,0-2.22,4.6q-1.82,4.44-4.36,10.76t-5.09,12.65q-2.55,6.33-4.68,11.51t-3.13,7.31c-.65-1.42-1.75-3.92-3.28-7.48s-3.26-7.67-5.18-12.32-3.92-9.72-6-15.2-4-10.9-5.91-16.27a26.73,26.73,0,0,0-3.78-1.4,28.38,28.38,0,0,0-8.55-1.06q-6.57,0-9.86,3.2a10.49,10.49,0,0,0-3.28,7.8,21.09,21.09,0,0,0,1.56,7.4q1.56,4.11,2.87,7.39.66,1.65,3.29,7.48t6.57,14.13q3.94,8.31,8.79,17.83t10,18.57h24.48q1.82-3.45,5.09-9.78t7.07-14.21q3.78-7.89,7.72-16.35t7.32-16.19q3.36-7.72,5.83-13.72a62.35,62.35,0,0,0,3.12-8.95c-.22-.11-.71-.41-1.48-.91A20.87,20.87,0,0,0,743,186Z"/><path class="cls-1" d="M835.07,183.9q-6.26,0-10,2.62t-3.78,9v33q0,17.1-15.44,17.09t-15.45-17.09V186.36c-.66-.22-2.19-.68-4.6-1.4a28.43,28.43,0,0,0-8-1.06q-6.26,0-10,2.62t-3.78,9v38a37.23,37.23,0,0,0,3.21,16,31.49,31.49,0,0,0,8.79,11.34,38,38,0,0,0,13.31,6.82,61,61,0,0,0,33.19,0,38,38,0,0,0,13.31-6.82,31.49,31.49,0,0,0,8.79-11.34,37.23,37.23,0,0,0,3.21-16V186.36c-.66-.22-2.19-.68-4.6-1.4A28.47,28.47,0,0,0,835.07,183.9Z"/><path class="cls-1" d="M947.76,229.58a21.51,21.51,0,0,0-6.41-7.56,30.15,30.15,0,0,0-9.2-4.52,75.35,75.35,0,0,0-10.77-2.38l-15-2.14a33.78,33.78,0,0,1-7.89-2,4,4,0,0,1-2.63-3.95,5.13,5.13,0,0,1,2.88-4.51q2.88-1.73,10.27-1.73a62.94,62.94,0,0,1,11.75,1,68.58,68.58,0,0,1,8.87,2.21,32.06,32.06,0,0,1,5.92,2.55,17.91,17.91,0,0,1,2.71,1.81q.33-.16,1.56-1a16,16,0,0,0,5.09-5.83,9.9,9.9,0,0,0,1.07-4.68,9.12,9.12,0,0,0-1.89-5.84,15.51,15.51,0,0,0-5-4,45.28,45.28,0,0,0-12.9-4.11,104.09,104.09,0,0,0-17.83-1.32,61.53,61.53,0,0,0-17.58,2.22,35.26,35.26,0,0,0-12.16,6.08,23.5,23.5,0,0,0-7,9,28.28,28.28,0,0,0-2.22,11.26,24.49,24.49,0,0,0,2.63,12,22.13,22.13,0,0,0,7.15,7.81,34,34,0,0,0,10.43,4.6A96.61,96.61,0,0,0,902,237l8.55,1a37,37,0,0,1,9,2,4.51,4.51,0,0,1,2.88,4.52q0,3.12-3.45,4.35t-10.19,1.24a66.49,66.49,0,0,1-11.25-.91,83.1,83.1,0,0,1-9.54-2.13,54.16,54.16,0,0,1-7.23-2.63,25.19,25.19,0,0,1-4.35-2.39L867,259.15a47.15,47.15,0,0,0,4.69,2.88,47.69,47.69,0,0,0,8.79,3.62A98.22,98.22,0,0,0,910.54,270q18.57,0,29.08-7.72t10.52-21.53A24.16,24.16,0,0,0,947.76,229.58Z"/><path class="cls-1" d="M262.05,135.73c-39.78-39-104.28-39.06-144.07,0L52.88,199.6a9.55,9.55,0,0,0,0,13.67l65.06,63.91c39.78,39.07,104.3,39.09,144.11,0h0a98.75,98.75,0,0,0,0-141.48ZM246.62,258.44h0a75.84,75.84,0,0,1-105.86,0l-47.8-47a7,7,0,0,1,0-10l47.82-46.93a75.86,75.86,0,0,1,105.85,0h0A72.54,72.54,0,0,1,246.62,258.44Z"/><path class="cls-1" d="M318.64,171a2.41,2.41,0,0,0-4.07,2.21,150.35,150.35,0,0,1,0,66.51,2.41,2.41,0,0,0,4.07,2.21l28.64-28.63a9.66,9.66,0,0,0,0-13.66Z"/><circle class="cls-1" cx="194.04" cy="206.49" r="50.14"/></svg>